<?xml version="1.0" encoding="utf-8"?>
<!-- Generator: Adobe Illustrator 15.1.0, SVG Export Plug-In . SVG Version: 6.00 Build 0)  -->
<!DOCTYPE svg PUBLIC "-//W3C//DTD SVG 1.1//EN" "http://www.w3.org/Graphics/SVG/1.1/DTD/svg11.dtd">
<svg version="1.1" id="Laag_1" xmlns="http://www.w3.org/2000/svg" xmlns:xlink="http://www.w3.org/1999/xlink" x="0px" y="0px"
	 width="1500px" height="600px" viewBox="0 0 1500 600" enable-background="new 0 0 1500 600" xml:space="preserve">
<g>
	<path fill="#1D1D1B" d="M1438,295.312C1438,149.889,1320.111,32,1174.688,32H325.312C179.889,32,62,149.889,62,295.312v8.375
		C62,449.111,179.889,567,325.312,567h849.375C1320.111,567,1438,449.111,1438,303.688V295.312z"/>
	<path fill="none" stroke="#FFED00" stroke-width="45" stroke-miterlimit="10" d="M1438.5,295.812
		c0-145.423-117.889-263.312-263.312-263.312H325.812C180.389,32.5,62.5,150.389,62.5,295.812v8.375
		C62.5,449.611,180.389,567.5,325.812,567.5h849.375c145.424,0,263.312-117.889,263.312-263.312V295.812z"/>
</g>
<text transform="matrix(1 0 0 1 209.1074 459.2998)" fill="#FFED00" stroke="#FFED00" stroke-width="0.9" stroke-linecap="round" font-family="Arial" font-weight="bold" font-size="450" >DIVD</text>
</svg>
