<svg xmlns="http://www.w3.org/2000/svg" viewBox="0 0 298.26 188.2"><defs><style>.cls-1{fill:#221c18;}.cls-2{fill:none;}.cls-3{fill:#e40134;}</style></defs><g id="Laag_2" data-name="Laag 2"><g id="Laag_1-2" data-name="Laag 1"><path class="cls-1" d="M39.25,70.53h9l6.2,17.56h.07l6.23-17.56h8.93V97.44H63.73V76.8h-.08L56.58,97.44H52.06L45.26,76.8h-.08V97.44H39.25Z"/><path class="cls-1" d="M76.35,70.53H94.63V76H82.28v5H94v5.47H82.28V92h13v5.48h-19Z"/><path class="cls-1" d="M101.29,70.53h5.93V92h11v5.48H101.29Z"/><path class="cls-1" d="M122.47,70.53h8.89a25.5,25.5,0,0,1,6.14.72,14.25,14.25,0,0,1,5.07,2.34,11.46,11.46,0,0,1,3.44,4.2,14,14,0,0,1,1.27,6.27,12.85,12.85,0,0,1-1.23,5.76A12.29,12.29,0,0,1,142.72,94a14.75,14.75,0,0,1-4.82,2.56,18.57,18.57,0,0,1-5.74.88h-9.69ZM128.4,92h3.08a16.43,16.43,0,0,0,3.81-.41,8.1,8.1,0,0,0,3.06-1.39,6.79,6.79,0,0,0,2-2.55,9.05,9.05,0,0,0,.74-3.85,7.55,7.55,0,0,0-.74-3.44,7,7,0,0,0-2-2.42,8.84,8.84,0,0,0-2.94-1.42,13,13,0,0,0-3.56-.48H128.4Z"/><path class="cls-1" d="M152.31,70.53h10a20,20,0,0,1,4,.38,9.17,9.17,0,0,1,3.25,1.31,6.63,6.63,0,0,1,2.2,2.51,8.65,8.65,0,0,1,.82,4,9.24,9.24,0,0,1-.76,4,6.51,6.51,0,0,1-2.09,2.55,8.62,8.62,0,0,1-3.16,1.35,18.16,18.16,0,0,1-4,.4h-4.33V97.44h-5.93Zm5.93,11.4h3.95a7.74,7.74,0,0,0,1.54-.15,4.09,4.09,0,0,0,1.33-.51,2.74,2.74,0,0,0,.95-1,3.13,3.13,0,0,0,.36-1.58,2.71,2.71,0,0,0-.47-1.65,3.23,3.23,0,0,0-1.22-1,5.34,5.34,0,0,0-1.65-.44c-.61-.06-1.19-.09-1.75-.09h-3Z"/><path class="cls-1" d="M199.94,87.06a12.75,12.75,0,0,1-.73,4.41,9.72,9.72,0,0,1-2.14,3.5,10,10,0,0,1-3.56,2.32,13.45,13.45,0,0,1-4.9.83,13.64,13.64,0,0,1-4.94-.83A10,10,0,0,1,180.12,95a9.74,9.74,0,0,1-2.15-3.5,13,13,0,0,1-.72-4.41V70.53h5.93v16.3a6.46,6.46,0,0,0,.4,2.32A5.49,5.49,0,0,0,184.7,91a5.05,5.05,0,0,0,1.73,1.21,5.44,5.44,0,0,0,2.18.44,5.33,5.33,0,0,0,2.17-.44A5.07,5.07,0,0,0,192.49,91a5.66,5.66,0,0,0,1.12-1.85,6.46,6.46,0,0,0,.4-2.32V70.53h5.93Z"/><path class="cls-1" d="M206.41,70.53h8.05l11.44,18.7H226V70.53h5.93V97.44h-7.76L212.41,78.29h-.07V97.44h-5.93Z"/><path class="cls-1" d="M243.58,75.78h-7.67V70.53h21.28v5.25h-7.68V97.44h-5.93Z"/><path class="cls-2" d="M187.42,28.35a7.82,7.82,0,0,0-2.41-.72,20.41,20.41,0,0,0-2.67-.18H176v10h5.7q1.31,0,2.76-.09a8.83,8.83,0,0,0,2.63-.56,4.59,4.59,0,0,0,2-1.46,4.47,4.47,0,0,0,.77-2.79,4.58,4.58,0,0,0-.68-2.66A4.4,4.4,0,0,0,187.42,28.35Z"/><path class="cls-3" d="M26.44,40a19.85,19.85,0,0,0-4.86-2.1q-2.61-.75-4.87-1.49A14.24,14.24,0,0,1,13,34.64a3.5,3.5,0,0,1-1.49-3,3.56,3.56,0,0,1,.62-2.11A4.63,4.63,0,0,1,13.7,28.1a8.62,8.62,0,0,1,2.11-.78A10.3,10.3,0,0,1,18,27.08a11.28,11.28,0,0,1,3.81.71A6.87,6.87,0,0,1,25,30l6.63-7.25a16.5,16.5,0,0,0-6.26-3.54,24.72,24.72,0,0,0-7.19-1.05,22,22,0,0,0-6.27.9,16.37,16.37,0,0,0-5.36,2.69,13.46,13.46,0,0,0-3.72,4.47,13.15,13.15,0,0,0-1.39,6.2A10.31,10.31,0,0,0,2.94,38.3a12,12,0,0,0,3.82,3.59,21.87,21.87,0,0,0,5,2.17c1.77.54,3.43,1.08,5,1.62a13.59,13.59,0,0,1,3.81,2A3.72,3.72,0,0,1,22,50.76a3.58,3.58,0,0,1-.59,2.05,4.71,4.71,0,0,1-1.55,1.42,7.91,7.91,0,0,1-2.17.84,10.9,10.9,0,0,1-2.39.28,10.63,10.63,0,0,1-4.68-1.09,9.92,9.92,0,0,1-3.75-3.07L0,58.76A20,20,0,0,0,6.82,63a23.45,23.45,0,0,0,7.94,1.31,23.57,23.57,0,0,0,6.47-.87,15.7,15.7,0,0,0,5.4-2.67,13,13,0,0,0,3.69-4.52,14.12,14.12,0,0,0,1.36-6.39,11.1,11.1,0,0,0-1.49-6.14A11.49,11.49,0,0,0,26.44,40Z"/><polygon class="cls-3" points="48.92 45.3 67.95 45.3 67.95 36.38 48.92 36.38 48.92 28.19 69.07 28.19 69.07 19.26 39.24 19.26 39.24 63.16 70.18 63.16 70.18 54.23 48.92 54.23 48.92 45.3"/><path class="cls-3" d="M103.29,54.11A11,11,0,0,1,98,55.35a11.29,11.29,0,0,1-4.87-1.06,11.8,11.8,0,0,1-3.93-2.94,14,14,0,0,1-2.64-4.47,17.14,17.14,0,0,1,0-11.31,13.74,13.74,0,0,1,2.67-4.5,12,12,0,0,1,4-2.94,12.11,12.11,0,0,1,5-1.05,11.69,11.69,0,0,1,4.81.93,9.57,9.57,0,0,1,3.5,2.66l7.44-6.07a14.72,14.72,0,0,0-3.23-3,17.34,17.34,0,0,0-3.75-2,21.54,21.54,0,0,0-4-1.08,23.06,23.06,0,0,0-3.88-.34,27,27,0,0,0-9.49,1.61,21.61,21.61,0,0,0-7.5,4.62,20.9,20.9,0,0,0-4.93,7.28,25,25,0,0,0-1.76,9.55,25,25,0,0,0,1.76,9.55A20.9,20.9,0,0,0,82.27,58a21.61,21.61,0,0,0,7.5,4.62,27,27,0,0,0,9.49,1.62,21.83,21.83,0,0,0,8.8-1.86,16.78,16.78,0,0,0,7.07-5.77l-8.06-6A10.56,10.56,0,0,1,103.29,54.11Z"/><path class="cls-3" d="M147.74,29.2V45.86a10.53,10.53,0,0,1-.65,3.78,8.91,8.91,0,0,1-1.83,3,8.16,8.16,0,0,1-2.79,2,8.54,8.54,0,0,1-3.53.72,8.75,8.75,0,0,1-3.56-.72,8.22,8.22,0,0,1-2.83-2,9.05,9.05,0,0,1-1.82-3,10.53,10.53,0,0,1-.66-3.78V29.17l-9.59-9.91h-.08v27a21.12,21.12,0,0,0,1.18,7.2,15.86,15.86,0,0,0,3.5,5.7,16,16,0,0,0,5.8,3.78,24.22,24.22,0,0,0,16.06,0,16.13,16.13,0,0,0,5.8-3.78,15.86,15.86,0,0,0,3.5-5.7,21.36,21.36,0,0,0,1.18-7.2v-27h0Z"/><path class="cls-3" d="M197.47,40.5a12.91,12.91,0,0,0,2.42-7.91,13.8,13.8,0,0,0-1.34-6.41,10.84,10.84,0,0,0-3.59-4.1,15.29,15.29,0,0,0-5.27-2.17,30.34,30.34,0,0,0-6.36-.65h-17v43.9H176V45.61h4.77L190,63.16h11.59L190.4,44.62A10.89,10.89,0,0,0,197.47,40.5Zm-8.4-5.18a4.59,4.59,0,0,1-2,1.46,8.83,8.83,0,0,1-2.63.56q-1.46.09-2.76.09H176v-10h6.32a20.41,20.41,0,0,1,2.67.18,7.82,7.82,0,0,1,2.41.72,4.4,4.4,0,0,1,1.74,1.52,4.58,4.58,0,0,1,.68,2.66A4.47,4.47,0,0,1,189.07,35.32Z"/><rect class="cls-3" x="206.4" y="19.26" width="9.67" height="43.9"/><polygon class="cls-3" points="220.84 27.82 233.37 27.82 233.37 63.16 243.04 63.16 243.04 27.82 255.56 27.82 255.56 19.26 220.84 19.26 220.84 27.82"/><polygon class="cls-3" points="286.79 19.26 276.93 35.69 267.63 19.26 255.6 19.26 272.09 44.44 272.09 63.16 281.77 63.16 281.77 44.44 298.26 19.26 286.79 19.26"/><path class="cls-3" d="M138.92,27.56,120.45,8.49V0h37V8.49Z"/><polygon class="cls-1" points="177.71 137.39 159.23 118.32 159.23 106.98 156.8 106.98 156.8 142.48 138.33 161.55 119.85 142.48 119.85 106.98 117.42 106.98 117.42 118.32 98.94 137.39 81.47 119.35 81.47 129.52 138.33 188.2 195.18 129.52 195.18 119.35 177.71 137.39"/></g></g></svg>